HIERARCHY
ROOT Hips
{
	OFFSET 49.746899 -5.741386 96.068100
	CHANNELS 6 Xposition Yposition Zposition Xrotation Yrotation Zrotation
	JOINT spine
	{
		OFFSET 0.000000 -0.467660 8.132492
		CHANNELS 3 Xrotation Yrotation Zrotation
		JOINT spine1
		{
			OFFSET 0.000000 -0.000001 10.349800
			CHANNELS 3 Xrotation Yrotation Zrotation
			JOINT spine2
			{
				OFFSET 0.000000 -0.000002 9.916992
				CHANNELS 3 Xrotation Yrotation Zrotation
				JOINT Neck
				{
					OFFSET 0.000000 -1.213904 25.461006
					CHANNELS 3 Xrotation Yrotation Zrotation
					JOINT Head
					{
						OFFSET 0.000000 -0.000001 7.692444
						CHANNELS 3 Xrotation Yrotation Zrotation
						End Site
						{
							OFFSET 0.000000 6.140627 18.619995
						}
					}
				}
				JOINT RightShoulder
				{
					OFFSET -4.175751 0.581443 10.709602
					CHANNELS 3 Xrotation Yrotation Zrotation
					JOINT RightArm
					{
						OFFSET 0.000000 -0.000002 14.046600
						CHANNELS 3 Xrotation Yrotation Zrotation
						JOINT RightArmRoll
						{
							OFFSET 0.000000 -0.000001 7.090973
							CHANNELS 3 Xrotation Yrotation Zrotation
							JOINT RightForeArm
							{
								OFFSET 0.000000 -0.000003 20.653503
								CHANNELS 3 Xrotation Yrotation Zrotation
								JOINT RightForeArmRoll
								{
									OFFSET 0.000000 -0.000001 7.957184
									CHANNELS 3 Xrotation Yrotation Zrotation
									JOINT RightHand
									{
										OFFSET 0.000000 -0.000003 15.968307
										CHANNELS 3 Xrotation Yrotation Zrotation
										End Site
										{
											OFFSET 0.000000 0.000000 0.100006
										}
									}
								}
							}
						}
					}
				}
				JOINT LeftShoulder
				{
					OFFSET 4.175751 0.581443 10.709602
					CHANNELS 3 Xrotation Yrotation Zrotation
					JOINT LeftArm
					{
						OFFSET 0.000000 -0.000002 14.046600
						CHANNELS 3 Xrotation Yrotation Zrotation
						JOINT LeftArmRoll
						{
							OFFSET 0.000000 -0.000001 7.090973
							CHANNELS 3 Xrotation Yrotation Zrotation
							JOINT LeftForeArm
							{
								OFFSET 0.000000 -0.000003 20.653503
								CHANNELS 3 Xrotation Yrotation Zrotation
								JOINT LeftForeArmRoll
								{
									OFFSET 0.000000 -0.000001 7.957184
									CHANNELS 3 Xrotation Yrotation Zrotation
									JOINT LeftHand
									{
										OFFSET 0.000000 -0.000003 15.968307
										CHANNELS 3 Xrotation Yrotation Zrotation
										End Site
										{
											OFFSET 0.000000 0.000000 0.100006
										}
									}
								}
							}
						}
					}
				}
			}
		}
	}
	JOINT RightUpLeg
	{
		OFFSET -7.208340 1.108840 -1.321823
		CHANNELS 3 Xrotation Yrotation Zrotation
		JOINT RightUpLegRoll
		{
			OFFSET 0.000000 -0.000003 18.723801
			CHANNELS 3 Xrotation Yrotation Zrotation
			JOINT RightLeg
			{
				OFFSET 0.000000 0.000004 -23.186600
				CHANNELS 3 Xrotation Yrotation Zrotation
				JOINT RightLegRoll
				{
					OFFSET 0.000000 -0.000004 23.262398
					CHANNELS 3 Xrotation Yrotation Zrotation
					JOINT RightFoot
					{
						OFFSET 0.000000 -0.000003 19.362099
						CHANNELS 3 Xrotation Yrotation Zrotation
						JOINT RightToeBase
						{
							OFFSET 0.000000 -0.000003 16.185699
							CHANNELS 3 Xrotation Yrotation Zrotation
							End Site
							{
								OFFSET 0.006859 0.903521 7.838623
							}
						}
					}
				}
			}
		}
	}
	JOINT LeftUpLeg
	{
		OFFSET 7.208340 1.108840 -1.321823
		CHANNELS 3 Xrotation Yrotation Zrotation
		JOINT LeftUpLegRoll
		{
			OFFSET 0.000000 -0.000003 18.723900
			CHANNELS 3 Xrotation Yrotation Zrotation
			JOINT LeftLeg
			{
				OFFSET 0.000000 -0.000004 23.186501
				CHANNELS 3 Xrotation Yrotation Zrotation
				JOINT LeftLegRoll
				{
					OFFSET 0.000000 -0.000004 23.477509
					CHANNELS 3 Xrotation Yrotation Zrotation
					JOINT LeftFoot
					{
						OFFSET 0.000000 -0.000003 19.147003
						CHANNELS 3 Xrotation Yrotation Zrotation
						JOINT LeftToeBase
						{
							OFFSET 0.000000 -0.000003 16.185699
							CHANNELS 3 Xrotation Yrotation Zrotation
							End Site
							{
								OFFSET -0.030746 0.903521 7.838623
							}
						}
					}
				}
			}
		}
	}
}
MOTION
Frames: 6
Frame Time: 0.041667
48.340694 -7.253815 94.425911 -5.038227 1.399125 0.803317 -0.751020 -0.338472 0.184498 2.501915 -0.677494 0.365143 4.147028 -0.673072 0.373232 -4.045353 -7.644583 -4.524125 7.170979 12.150790 -5.152459 -24.297179 -25.757429 -30.312485 -137.860142 -186.770785 -78.858161 0.000004 0.000002 0.000002 49.203532 5.900047 1.704312 -0.000002 0.000000 -3.003221 -5.000206 -7.999015 0.000122 -19.520723 20.420538 23.352593 -139.855595 180.367852 78.165245 -0.000000 0.000010 0.000002 40.788421 -5.239072 -0.012027 0.000003 0.000000 3.001040 -5.000253 7.998805 -0.000132 -8.441771 -166.008130 2.494544 179.999991 -0.000006 -1.235002 150.654507 5.477672 0.326006 -0.000001 -0.000001 0.827182 70.916392 6.762479 2.416516 28.216343 -7.198615 3.437888 -4.567630 165.065455 0.453773 -0.000004 -0.000005 -1.348420 -28.212202 -9.206127 -1.565041 0.000002 0.000001 -1.300200 72.697439 -6.608189 -2.675035 28.587776 7.159640 -3.787880 
48.340096 -7.257586 94.731606 -5.021243 1.372833 0.784650 -0.767981 -0.329917 0.182915 2.467954 -0.660438 0.361170 4.113061 -0.656065 0.369055 -4.058622 -7.655053 -4.488166 7.279151 12.098434 -5.116375 -24.230246 -25.937338 -30.201652 -137.742417 -186.353829 -79.068817 0.000005 0.000005 0.000002 48.775580 5.951814 1.632800 0.000000 0.000001 -3.003229 -5.000206 -7.999011 0.000123 -19.424985 20.672527 23.203828 -139.832182 179.978381 78.304752 -0.000002 0.000010 0.000003 41.078557 -5.127310 -0.008214 0.000004 -0.000000 3.001040 -5.000252 7.998804 -0.000132 -8.254005 -165.969963 2.580457 179.999991 -0.000005 -1.232995 151.293417 5.349640 0.265856 -0.000001 -0.000001 0.747325 70.544844 6.787523 2.371302 27.958302 -7.226581 3.112838 -4.319028 165.020731 0.370756 -0.000005 -0.000004 -1.335810 -27.374777 -9.029873 -1.448089 0.000003 0.000003 -1.135440 72.051884 -6.662567 -2.548914 28.294682 7.194663 -3.429036 
48.337795 -7.242387 95.047890 -5.004203 1.345225 0.764194 -0.784656 -0.321219 0.181246 2.434564 -0.643089 0.357009 4.079664 -0.638768 0.364686 -4.072968 -7.657972 -4.451021 7.391342 12.038113 -5.079355 -24.159158 -26.118420 -30.085238 -137.625867 -185.927107 -79.279754 0.000007 0.000004 0.000003 48.339096 6.005360 1.561839 -0.000000 0.000002 -3.003240 -5.000203 -7.999010 0.000120 -19.330730 20.933685 23.057337 -139.812538 179.588268 78.438234 0.000001 0.000009 0.000002 41.376760 -5.015290 -0.006048 0.000003 0.000002 3.001050 -5.000253 7.998806 -0.000132 -8.071657 -165.931099 2.665088 179.999991 -0.000007 -1.231000 151.922873 5.222990 0.209098 -0.000002 0.000001 0.672953 70.197126 6.809104 2.331016 27.680773 -7.253539 2.764117 -4.070356 164.978261 0.286897 -0.000005 -0.000004 -1.323430 -26.537933 -8.850834 -1.336309 0.000002 0.000001 -0.974306 71.419593 -6.716141 -2.427760 27.979749 7.228369 -3.044494 
48.338596 -7.243385 95.360703 -4.987432 1.316638 0.742051 -0.800981 -0.312460 0.179511 2.401873 -0.625615 0.352727 4.046968 -0.621346 0.360196 -4.086168 -7.654010 -4.413148 7.504150 11.971209 -5.041683 -24.084526 -26.301991 -29.964125 -137.511393 -185.493731 -79.490541 0.000006 0.000005 0.000002 47.898853 6.059269 1.491899 0.000001 0.000002 -3.003250 -5.000205 -7.999013 0.000121 -19.238638 21.203185 22.914276 -139.795845 179.198551 78.565692 -0.000003 0.000008 0.000003 41.680061 -4.903757 -0.005296 0.000003 0.000001 3.001050 -5.000252 7.998802 -0.000132 -7.894099 -165.893492 2.748167 179.999991 -0.000005 -1.229005 152.542153 5.098788 0.156123 -0.000001 0.000001 0.603687 69.871893 6.827610 2.295264 27.390537 -7.278303 2.400406 -3.822615 164.937047 0.202982 -0.000005 -0.000005 -1.311430 -25.706238 -8.670922 -1.230574 0.000003 0.000001 -0.817725 70.804439 -6.768738 -2.312574 27.650551 7.259284 -2.643696 
48.338596 -7.212057 95.674194 -4.971208 1.287421 0.718321 -0.816883 -0.303722 0.177734 2.370024 -0.608184 0.348387 4.015124 -0.603967 0.355647 -4.095968 -7.643799 -4.374956 7.614219 11.899008 -5.003662 -24.007073 -26.489343 -29.839259 -137.400156 -185.056886 -79.703854 0.000005 0.000003 0.000002 47.459860 6.112063 1.423366 0.000001 0.000002 -3.003261 -5.000204 -7.999010 0.000122 -19.149369 21.480192 22.775631 -139.781351 178.810309 78.686156 -0.000000 0.000009 0.000003 41.985504 -4.793472 -0.005657 0.000003 0.000000 3.001050 -5.000253 7.998805 -0.000132 -7.720700 -165.859109 2.829419 179.999991 -0.000006 -1.226998 153.150422 4.976298 0.106330 -0.000002 0.000000 0.539148 69.567751 6.843517 2.263657 27.094438 -7.299978 2.030385 -3.576716 164.901107 0.119455 -0.000004 -0.000005 -1.299980 -24.884148 -8.492159 -1.131577 0.000002 0.000003 -0.666619 70.209939 -6.820242 -2.204079 27.314813 7.286334 -2.236169 
48.331898 -7.212523 95.987099 -4.955859 1.257941 0.693108 -0.832295 -0.295092 0.175937 2.339155 -0.590960 0.344051 3.984251 -0.586797 0.351105 -4.100145 -7.627979 -4.336910 7.718135 11.822699 -4.965616 -23.927355 -26.681926 -29.711600 -137.292922 -184.619699 -79.920542 0.000002 0.000005 0.000003 47.026894 6.162239 1.356540 0.000001 0.000001 -3.003270 -5.000204 -7.999012 0.000121 -19.063703 21.763751 22.642694 -139.768073 178.424567 78.800767 -0.000002 0.000009 0.000002 42.290120 -4.685158 -0.006819 0.000003 0.000002 3.001050 -5.000251 7.998802 -0.000131 -7.550928 -165.827895 2.908248 179.999991 -0.000006 -1.225999 153.746657 4.857461 0.060526 -0.000002 0.000002 0.478958 69.283431 6.857235 2.235734 26.799596 -7.317991 1.662812 -3.333677 164.869483 0.037136 -0.000005 -0.000004 -1.289250 -24.076144 -8.316591 -1.039867 0.000003 0.000000 -0.521908 69.640131 -6.870380 -2.102923 26.980454 7.308795 -1.831458 
